<svg width="185" height="24" viewBox="0 0 185 24" fill="none" xmlns="http://www.w3.org/2000/svg">
<path d="M79.6674 15.6113H91.8608L85.4229 5.22496L73.5969 23.9945L68.2062 24L82.6018 1.46166C83.2124 0.547087 84.2651 0 85.4146 0C86.5502 0 87.5863 0.530509 88.1942 1.42022L102.642 24L97.2515 23.9945L94.7178 19.8029H82.3669L79.6674 15.6113ZM135.617 19.8084V0.229335H131.041V21.7205C131.041 22.3145 131.284 22.881 131.707 23.3092C132.157 23.7458 132.749 23.9945 133.381 23.9945H154.223L156.914 19.8084H135.617ZM60.0109 16.3021C64.4512 16.3021 68.0404 12.7046 68.0404 8.2671C68.0404 3.82961 64.4512 0.229335 60.0109 0.229335H40.0063V23.9945H44.5792V4.42091H59.6959C61.8263 4.42091 63.5421 6.13953 63.5421 8.2671C63.5421 10.3864 61.8263 12.1105 59.6959 12.1105L46.82 12.105L60.453 23.9945H67.0954L57.9193 16.2966L60.0109 16.3021ZM11.884 23.9945C5.32167 23.9945 0 18.6783 0 12.1105C0 5.54824 5.32167 0.229335 11.884 0.229335H25.6993C32.2616 0.229335 37.5805 5.54824 37.5805 12.1105C37.5805 18.6811 32.2616 24 25.6993 24L11.884 23.9945ZM25.3869 19.8084C29.6365 19.8084 33.0848 16.3629 33.0848 12.1105C33.0848 7.86369 29.6365 4.4209 25.3869 4.4209H12.1932C7.94362 4.4209 4.49808 7.86369 4.49808 12.1105C4.49808 16.3629 7.94362 19.8084 12.1932 19.8084H25.3869ZM112.181 23.9945C105.616 23.9945 100.291 18.6783 100.291 12.1105C100.291 5.54824 105.616 0.229335 112.181 0.229335H128.59L125.896 4.42091H112.49C108.235 4.42091 104.784 7.86369 104.784 12.1105C104.784 16.3629 108.235 19.8084 112.49 19.8084H128.958L126.283 23.9945H112.181ZM168.083 19.8084C164.563 19.8084 161.587 17.4432 160.675 14.216H180.207L182.907 10.0272H160.672C161.584 6.78886 164.557 4.42091 168.083 4.42091H181.489L184.181 0.229335H167.765C161.208 0.229335 155.887 5.54824 155.887 12.1105C155.887 18.6783 161.208 23.9945 167.765 23.9945H181.862L184.554 19.8084H168.083Z" fill="#161513"/>
</svg>
